<svg xmlns="http://www.w3.org/2000/svg" version="1.1" xmlns:xlink="http://www.w3.org/1999/xlink" xmlns:svgjs="http://svgjs.com/svgjs" width="1000" height="1000"><rect width="1000" height="1000" rx="100" ry="100" fill="#ffffff"></rect><g transform="matrix(53.872053872053876,0,0,53.872053872053876,161.95285691058996,100.00001512681592)"><svg xmlns="http://www.w3.org/2000/svg" version="1.1" xmlns:xlink="http://www.w3.org/1999/xlink" xmlns:svgjs="http://svgjs.com/svgjs" width="12.55" height="14.85"><svg id="Layer_1" xmlns="http://www.w3.org/2000/svg" width="12.55" height="14.85" viewBox="0 0 12.55 14.85"><defs><style>.cls-1{fill:#fff;}.cls-2{fill:#79afa4;}.cls-3{fill:#2a2a29;}.cls-4{fill:#f3de5d;}.cls-5{fill:#913728;}.cls-6{fill:#31271b;}.cls-7{fill:#f1d7bd;}</style></defs><rect class="cls-6" x="7.37" y="2.34" width="5.18" height="7.58" rx=".69" ry=".69"></rect><rect class="cls-1" x="8.39" y="8.35" width=".86" height="1.14" rx=".23" ry=".23"></rect><rect class="cls-1" x="11.09" y="8.35" width=".86" height="1.14" rx=".23" ry=".23"></rect><rect class="cls-1" x="9.75" y="8.35" width=".86" height="1.14" rx=".23" ry=".23"></rect><rect class="cls-1" x="8.39" y="2.77" width=".86" height="1.14" rx=".23" ry=".23"></rect><rect class="cls-3" x="1.06" width="6.48" height="13.87" rx=".72" ry=".72"></rect><rect class="cls-3" x="0" y="1.16" width="8.66" height="13.69" rx=".82" ry=".82"></rect><rect class="cls-7" y="2.15" width="8.67" height="11.75"></rect><rect class="cls-2" x="2.06" y="2.15" width="1.68" height="11.75"></rect><rect class="cls-5" x="3.69" y="2.15" width="1.68" height="11.76"></rect><rect class="cls-4" x=".55" y="2.15" width="1.51" height="11.75"></rect><rect class="cls-1" x="11.09" y="2.77" width=".86" height="1.14" rx=".23" ry=".23"></rect><rect class="cls-1" x="9.75" y="2.77" width=".86" height="1.14" rx=".23" ry=".23"></rect></svg></svg></g></svg>