<?xml version="1.0" encoding="UTF-8"?><svg id="Layer_1" xmlns="http://www.w3.org/2000/svg" width="13.87" height="15.71" viewBox="0 0 13.87 15.71"><defs><style>.cls-1{fill:#fff;}.cls-2{fill:#79afa4;}.cls-3{fill:#f3de5d;}.cls-4{fill:#913728;}.cls-5{fill:#31271b;}.cls-6{fill:#f1d7bd;}.cls-7{fill:#1d1d1b;}</style></defs><rect class="cls-5" x="8.32" y="3.2" width="5.55" height="8.61" rx=".69" ry=".69"/><rect class="cls-1" x="9.15" y="9.95" width="1.01" height="1.34" rx=".23" ry=".23"/><rect class="cls-1" x="12.31" y="9.95" width="1.01" height="1.34" rx=".23" ry=".23"/><rect class="cls-1" x="10.74" y="9.95" width="1.01" height="1.34" rx=".23" ry=".23"/><rect class="cls-1" x="9.15" y="3.63" width="1.01" height="1.34" rx=".23" ry=".23"/><rect class="cls-7" x="1.49" width="6.47" height="4.2" rx=".72" ry=".72"/><rect class="cls-7" x="0" y="2.02" width="9.61" height="13.69" rx=".82" ry=".82"/><rect class="cls-6" y="3.01" width="9.62" height="11.75"/><rect class="cls-2" x="2.28" y="3.01" width="1.86" height="11.75"/><rect class="cls-4" x="4.1" y="3.01" width="1.86" height="11.76"/><rect class="cls-3" x=".61" y="3.01" width="1.68" height="11.75"/><rect class="cls-1" x="12.31" y="3.63" width="1.01" height="1.34" rx=".23" ry=".23"/><rect class="cls-1" x="10.74" y="3.63" width="1.01" height="1.34" rx=".23" ry=".23"/></svg>