<svg width="393" height="795" viewBox="0 0 393 795" fill="none" xmlns="http://www.w3.org/2000/svg">
<g clip-path="url(#clip0_639_3421)">
<rect width="393" height="795" fill="white"/>
<g opacity="0.4">
<path d="M353.107 568.35C374.176 573.604 406.688 571.916 406.688 571.916C422.347 571.085 442.268 569.195 465.819 564.959L477.321 526.492C449.883 536.723 427.728 540.731 412.404 542.465C381.128 545.996 353.937 548.61 327.931 529.324C317.19 521.36 302.741 510.179 296.709 482.709C292.229 462.315 294.465 442.393 296.417 425.018C299.295 399.388 306.966 371.784 322.311 316.571C326.06 303.082 327.775 297.372 330.449 286.233C333.45 273.711 339.718 247.579 341.927 222.578C343.014 210.267 346.079 171.919 333.172 139.829C321.194 110.05 301.77 101.33 290.829 96.7045C259.559 83.4774 227.742 96.1485 197.017 108.384C163.437 121.756 156.96 132.147 123.507 141.586C95.394 149.519 76.2973 148.853 72.2571 148.672C47.7638 147.581 22.2857 146.439 5.40888 118.852C0.561408 110.923 -8.66124 95.2583 -8.52436 66.6775C-8.37986 37.3971 1.4955 11.9085 5.52072 2.39057C-2.50967 0.538514 -10.5366 -1.31268 -18.5687 -3.15891C-30.203 30.6466 -31.1409 55.8399 -31.0198 67.1808C-30.5672 109.605 -13.459 131.376 -4.00354 143.416C7.21112 157.686 18.4635 163.404 25.5225 167.494C50.0066 181.684 73.0498 178.762 95.3321 175.939C118.479 173.005 131.275 167.221 147.472 159.899C160.642 153.945 175.569 147.202 200.845 139.745C268.691 119.743 284.474 132.565 290.417 137.392C305.068 149.293 312.578 168.075 314.534 173.542C317.831 182.775 323.249 202.476 322.518 230.709C322.031 249.463 319.136 259.958 312.788 282.951C308.855 297.201 303.465 316.713 296.961 344.758C286.636 389.261 280.406 416.128 279.749 448.757C279.403 466.069 278.75 498.297 291.362 524.433C300.938 544.282 313.281 550.873 327.571 558.501C336.271 563.144 344.774 566.273 353.117 568.353L353.107 568.35Z" fill="#F2E291"/>
<path d="M405.196 651.289C409.892 652.46 416.218 654.532 425.186 655.797C430.403 656.534 434.827 656.83 437.935 656.959C447.228 626.29 456.523 595.628 465.816 564.959C454.787 567.244 439.764 569.792 422.21 570.995C402.58 572.338 383.627 573.637 361.068 568.275C339.505 563.149 319.728 558.443 302.56 535.524C297.116 528.255 286.76 514.011 281.936 487.168C278.503 468.056 279.398 451.056 280.149 438.135C281.906 407.892 287.896 383.501 297.358 345.715C306.242 310.234 308.418 308.773 314.443 281.084C321.382 249.202 325.06 232.307 324.757 212.886C324.126 172.22 306.513 151.088 300.852 144.296C280.319 119.662 254.47 120.757 238.165 121.777C228.528 122.38 223.464 124.048 155.104 152.421C109.869 171.197 97.3969 176.56 78.3026 177.11C55.2477 177.775 39.3723 170.942 34.5367 168.702C16.8301 160.504 -21.6202 142.794 -28.2625 82.8996C-32.096 48.3498 -23.9163 14.1024 -18.7992 -3.67321L-47.2802 -10.7749C-50.7347 1.35286 -55.0214 19.085 -57.2302 39.9783C-60.9868 75.4976 -56.5525 99.4251 -52.9823 118.691C-51.0295 129.236 -47.2721 145.366 -38.4132 161.786C-28.8365 179.536 -18.191 187.846 -11.5186 192.917C5.01479 205.488 20.3591 208.268 34.3228 210.61C44.3909 212.3 60.0804 213.751 80.181 210.772C106.425 206.882 127.546 197.318 148.643 187.76C168.696 178.675 185.066 169.399 211.724 161.528C221.986 158.501 227.997 157.382 234.83 157.896C240.696 158.337 258.444 160.07 271.634 180.851C271.634 180.851 286.09 203.626 285.575 242.584C285.532 245.874 285.357 248.981 285.013 255.189C285.013 255.189 283.477 282.694 279.502 310.569C272.223 361.6 253.229 398.774 249.064 452.398C245.87 493.55 253.276 521.582 256.386 533.587C266.239 571.635 283.894 589.315 296.783 602.23C318.444 623.927 339.14 630.766 373.424 642.101C383.813 645.537 394.426 648.603 405.2 651.29L405.196 651.289Z" fill="#97BAB3"/>
<path d="M402.209 777.691C409.527 752.592 416.841 727.492 424.159 702.393C393.806 696.86 364.225 688.244 336.235 676.78C283.84 655.33 266.881 636.64 257.202 621.193C246.438 604.017 240.636 586.262 238.133 577.208C235.929 569.225 230.689 547.144 229.685 514.54C229.124 496.357 229.856 466.647 236.535 428.33C237.821 420.96 239.182 414.085 240.597 407.617C245.296 386.111 248.178 379.64 253.28 359.619C256.97 345.132 260.78 329.968 263.001 310.844C264.63 296.82 265.709 287.545 264.518 276.238C262.07 252.981 252.048 240.812 247.549 235.175C237.298 222.316 223.959 216.811 206.767 218.349C192.43 219.627 176.424 225.575 159.478 231.872C148.289 236.027 136.718 240.325 124.359 243.851C98.5376 251.209 57.3741 258.863 17.8428 249.012C-0.864319 244.348 -19.2012 235.761 -35.3768 221.369C-63.4463 196.389 -73.9418 158.644 -76.7568 148.811C-95.8196 82.1743 -82.2947 7.88113 -76.7963 -18.1227L-116.177 113.586C-114.906 128.821 -112.404 149.899 -107.054 173.147C-100.66 200.92 -88.6388 252.448 -54.1541 284.369C-48.7722 289.35 -28.7175 307.008 2.79465 312.348C48.3174 320.06 99.2388 298.919 120.332 290.162C126.8 287.479 139.776 281.852 157.288 277.583C198.604 267.506 209.76 278.466 213.008 282.095C215.368 284.737 223.164 293.765 225.487 311.51C230.324 348.433 205.974 381.028 191.488 442.694C180.515 489.403 181.634 525.431 182.188 539.954C184.571 602.25 206.215 637.521 220.289 659.681C242.918 695.304 267.619 709.83 316.1 737.432C350.025 756.744 379.944 769.422 402.219 777.694L402.209 777.691Z" fill="#C6613C"/>
<path d="M419.635 719.409L445.253 633.733C407.638 632.251 377.841 624.308 356.373 616.443C302.266 596.626 283.816 571.189 277.34 560.857C267.57 545.262 261.595 531.992 258.271 516.871C256.14 507.184 252.753 487.156 255.567 451.784C260.699 387.197 279.099 364.579 291.342 279.708C294.271 259.414 295.821 242.646 293.653 224.545C292.676 216.378 288.811 190.194 273.552 173.188C262.573 160.949 248.591 156.686 224.581 158.472C178.414 161.903 162.368 182.715 104.337 199.885C76.0024 208.27 55.2719 214.155 29.8076 209.484C13.1955 206.438 -11.2922 201.409 -31.1277 172.37C-35.9881 165.259 -52.9041 138.626 -56.6218 88.4604C-59.7583 46.1368 -51.9449 8.0968 -47.2801 -10.7749L-76.8031 -18.1364C-83.2535 7.85557 -93.5444 59.125 -86.9256 112.807C-78.3988 181.964 -47.1154 211.986 -34.026 224.03C-12.535 243.799 8.50643 248.796 22.9227 252.008C63.0854 260.958 102.644 249.998 124.444 243.729C132.661 241.362 130.825 241.512 145.469 237.072C187.722 224.266 209.177 217.967 225.387 223.18C233.872 225.909 248.828 231.098 256.279 252.176C260.671 264.601 260.806 277.88 260.589 286.444C259.08 346.128 234.942 398.398 227.248 456.622C217.279 532.04 239.365 583.647 246.565 600.474C260.165 632.254 276.731 647.026 295.663 663.445C319.746 684.331 359.861 711.13 419.635 719.409Z" fill="#584239"/>
</g>
</g>
<defs>
<clipPath id="clip0_639_3421">
<rect width="393" height="795" fill="white"/>
</clipPath>
</defs>
</svg>
