<svg width="308" height="3076" viewBox="0 0 308 3076" fill="none" xmlns="http://www.w3.org/2000/svg">
<g opacity="0.4" clip-path="url(#clip0_276_985)">
<path d="M97.0552 758.105C97.229 739.126 98.7751 720.048 102.022 700.906C112.866 636.927 141.931 578.028 170.045 521.072C192.029 476.544 212.784 434.484 225.643 390.08C262.69 262.183 243.275 118.053 206.031 1.9415L257.225 2.41039C296.673 125.455 326.55 263.248 285.915 403.563C271.83 452.165 249.118 498.223 227.134 542.752C199.392 598.974 173.178 652.09 163.514 709.023C148.011 800.533 176.437 891.214 206.551 987.239C215.949 1017.2 225.668 1048.2 233.797 1078.9C271.673 1221.84 277.357 1373.88 250.268 1518.54C241.367 1566.09 228.862 1613.79 216.773 1659.93C188.825 1766.64 162.412 1867.43 175.13 1970.26C182.314 2028.39 202.652 2087.69 222.314 2145.03C254.834 2239.91 288.476 2338.02 267.272 2439.06C257.062 2487.72 234.783 2532.52 213.23 2575.83C195.03 2612.43 177.836 2647 167.537 2683.41C133.749 2802.88 184.602 2962.36 223.599 3074.81L159.606 3074.22C129.909 2988.62 92.6196 2871.43 93.538 2769.16C93.841 2736.09 97.9112 2702.95 107.171 2670.21C118.717 2629.38 137.774 2591.06 156.197 2554.01C177.266 2511.63 197.179 2471.61 206.108 2429.11C224.615 2340.97 194.571 2253.33 162.763 2160.56C142.282 2100.84 121.125 2039.09 113.328 1975.98C99.5058 1864.06 128.325 1754.04 156.197 1647.65C168.077 1602.32 180.355 1555.46 188.93 1509.61C214.731 1371.88 209.309 1227.14 173.253 1091.07C165.406 1061.42 155.848 1030.98 146.609 1001.53C121.79 922.4 96.2952 841.077 97.055 758.121L97.0552 758.105Z" fill="#C6613C"/>
<path d="M43.0646 765.484C43.2327 747.13 44.7177 728.739 47.8488 710.3C58.4024 648.079 87.0569 590.008 114.761 533.849C136.019 490.786 157.985 446.257 171.146 400.8C209.081 269.806 174.329 119.15 136.553 1.30525L169.463 1.60668C208.36 122.918 241.02 270.354 201.292 407.541C187.526 455.09 165.039 500.638 143.315 544.673C115.145 601.74 88.5586 655.636 78.604 714.342C62.6181 808.681 92.8208 904.995 122.028 998.148C131.391 1027.98 141.056 1058.83 149.133 1089.28C194.202 1259.41 198.445 1373.17 165.338 1524.02C161.16 1543.06 155.811 1564.01 149.628 1588.24C135.309 1644.4 115.697 1721.31 97.7514 1828.02C90.4806 1871.21 83.9222 1918.47 90.1858 1979.26C95.929 2034.97 111.296 2090.04 135.881 2142.93L136.31 2143.99C144.386 2166.55 152.268 2186.42 159.221 2203.94C180.4 2257.32 195.699 2295.9 195.482 2353.48C195.341 2386.87 189.46 2422.08 177.902 2458.12L177.507 2459.33C168.941 2486.29 160.924 2501.06 151.625 2518.18C144.632 2531.08 136.708 2545.68 126.695 2568.85C103.175 2623.32 91.6086 2670.39 86.0321 2700.28C80.5704 2729.61 74.6917 2776.53 77.663 2833.43C81.5348 2907.8 107.234 3002.69 139.476 3073.99L108.394 3073.7C74.8795 2999.59 50.6492 2912 46.6039 2834.62C43.5077 2775.38 49.6607 2726.46 55.3533 2695.87C61.1422 2664.75 73.1653 2615.77 97.6005 2559.2C108.062 2534.99 116.264 2519.84 123.518 2506.48C132.539 2489.84 139.681 2476.69 147.532 2451.99L147.927 2450.73C158.713 2417.04 164.262 2384.22 164.344 2353.33C164.536 2300.38 150.721 2265.54 129.792 2212.81C122.821 2195.24 114.922 2175.34 106.774 2152.6C81.1683 2097.36 65.1469 2039.86 59.1522 1981.65C52.5868 1917.88 59.3812 1868.81 66.9229 1823.99C85.0426 1716.29 104.787 1638.82 119.22 1582.25C125.347 1558.21 130.638 1537.45 134.74 1518.81C166.931 1372.15 162.752 1261.35 118.779 1095.36C110.862 1065.44 101.268 1034.86 91.9937 1005.28C67.4763 927.088 42.2658 846.711 43.0099 765.468L43.0646 765.484Z" fill="#97BAB3"/>
<path d="M21.43 741.873C21.5324 730.687 22.3772 720.309 24.0394 710.514C34.5161 648.708 63.0773 590.844 90.707 534.861C112.021 491.686 134.043 447.03 147.279 401.333C185.44 269.605 150.703 119.333 112.784 1.07142L136.553 1.28912C175.325 122.199 209.829 270.02 170.308 406.489C156.6 453.798 134.186 499.219 112.518 543.142C85.5036 597.883 57.5572 654.504 47.5441 713.61C37.6666 771.884 59.2844 857.221 98.5503 1012.11C104.78 1036.72 111.239 1062.16 118.171 1089.88C121.681 1103.94 125.018 1116.94 128.125 1129.11C146.431 1200.66 157.482 1243.85 159.284 1312.67C161.126 1382.98 151.62 1432.66 134.355 1522.91C129.151 1550.11 124.07 1573.75 119.159 1594.88C110.422 1632.5 107.949 1637.01 97.6325 1679.29C86.4426 1725.14 79.391 1760.36 76.4177 1775.55C70.7768 1804.48 66.0374 1828.83 62.8633 1853.96C60.3606 1873.67 53.4164 1931.1 61.5965 1996.27C66.8964 2038.5 81.3273 2105.94 125.703 2184.09C129.793 2192.66 174.737 2288.63 167.926 2363.48C166.767 2376.21 162.233 2408.09 151.19 2443.92C140.429 2478.79 129.041 2500.4 116.983 2523.29C106.822 2542.55 96.3273 2562.45 84.8055 2592.63C79.9531 2605.35 67.6996 2639.55 58.7882 2682.19C48.0593 2733.6 44.4186 2789.71 48.306 2844.41C53.3576 2915.76 78.2947 3006.02 108.412 3073.75L75.5011 3073.45C44.4881 3003.73 29.7934 2919.16 24.597 2845.67C20.5968 2789.3 24.3447 2731.46 35.4177 2678.42C44.5971 2634.48 57.2447 2599.16 62.2655 2586.02C74.1995 2554.76 84.9739 2534.31 95.3945 2514.56C107.527 2491.55 118.022 2471.67 128.237 2438.48C128.237 2438.48 140.502 2398.95 144.204 2362.18C149.375 2310.66 128.492 2260.86 98.2331 2188.68C74.6127 2132.33 64.4512 2121.79 51.7215 2076.22C48.8 2065.8 40.5441 2034.87 36.1328 1993.44C30.2396 1938.13 34.373 1896.11 39.2023 1851.96C47.7643 1773.61 60.1618 1727.68 74.4907 1674.5C85.3929 1634.11 97.7342 1588.33 110.908 1519.47C129.211 1423.78 137.23 1378.72 135.508 1313.16C133.761 1246.39 122.904 1203.96 104.916 1133.67C101.791 1121.45 98.4544 1108.42 94.9265 1094.32C88.0123 1066.64 81.5528 1041.21 75.3234 1016.62C41.7405 884.091 20.8637 801.705 21.4113 741.921L21.43 741.873Z" fill="#F2E291"/>
<path d="M73.5944 762.179C73.7639 743.68 75.2687 725.114 78.4196 706.515C89.0317 643.894 117.798 585.616 145.595 529.266C166.797 486.315 188.707 441.913 201.793 396.695C239.538 266.452 207.116 119.05 169.463 1.6065L206.031 1.94143C245.07 123.654 278.973 267.117 239.037 405.038C225.196 452.842 202.653 498.502 180.873 542.664C152.814 599.54 126.303 653.245 116.425 711.536C100.537 805.219 130.651 901.213 159.752 994.044C169.114 1023.91 178.797 1054.79 186.874 1085.29C224.396 1226.93 230.038 1377.56 203.199 1520.9C194.355 1568.11 181.907 1615.65 169.856 1661.65C142.912 1764.49 115.041 1870.85 127.98 1975.41C140.9 2080.02 167.806 2144.97 191.527 2202.29C222.548 2277.23 247.056 2336.41 220.089 2441.86C207.743 2490.11 189.806 2524.01 172.464 2556.77C148.052 2602.86 125.016 2646.4 116.08 2729.58C105.566 2827.49 122.596 2908.6 133.68 2948.23C144.603 2987.31 164.274 3037.7 183.393 3074.44L139.512 3074.04C119.405 3035.4 107.887 2997.27 96.3784 2956.14C84.7285 2914.46 66.8038 2829.19 77.8573 2726.35C87.3939 2637.43 112.923 2589.2 137.614 2542.57C154.882 2509.97 171.181 2479.19 182.617 2434.45C207.138 2338.55 185.456 2286.17 155.438 2213.67C132.182 2157.51 103.236 2087.6 89.8045 1978.95C76.1856 1868.75 104.778 1759.62 132.441 1654.07C144.359 1608.6 156.675 1561.57 165.326 1515.4C191.376 1376.34 185.894 1230.21 149.485 1092.82C141.585 1062.96 131.991 1032.42 122.735 1002.87C98.1462 924.456 72.8646 843.855 73.6126 762.195L73.5944 762.179Z" fill="#584239"/>
</g>
<defs>
<clipPath id="clip0_276_985">
<rect width="3072.56" height="279.496" fill="white" transform="translate(307.706 2.8728) rotate(90.5248)"/>
</clipPath>
</defs>
</svg>
